<svg t="1776232199660" class="icon" viewBox="0 0 1024 1024" version="1.1" xmlns="http://www.w3.org/2000/svg" p-id="8842" width="200" height="200"><path d="M932.5824 772.39296a33.22368 33.22368 0 0 0-0.38912-1.44384L846.75072 483.7888a112 112 0 0 0-108.81536-84.72576 30.72 30.72 0 0 0 0 61.44 50.688 50.688 0 0 1 49.34144 38.7072c0.11776 0.4864 0.25088 0.96256 0.38912 1.43872l85.39648 287.02208a50.46784 50.46784 0 0 1-9.51296 42.8032 50.51392 50.51392 0 0 1-39.97184 19.44576H200.30976a50.51904 50.51904 0 0 1-39.97184-19.44576 50.46784 50.46784 0 0 1-9.51296-42.8032l85.39648-287.02208c0.13824-0.47616 0.27136-0.95744 0.38912-1.43872a50.69824 50.69824 0 0 1 49.34144-38.7072 30.72 30.72 0 0 0 0-61.44 111.99488 111.99488 0 0 0-108.81536 84.72064l-85.44256 287.16544a35.31776 35.31776 0 0 0-0.38912 1.44384c-8.26368 33.70496-0.72704 68.69504 20.69504 96S165.6064 911.36 200.30976 911.36h623.26272c34.70336 0 66.88768-15.66208 88.30976-42.96704s28.96384-62.29504 20.70016-96z" fill="#333333" p-id="8843"></path><path d="M623.40096 327.83872c0-60.83072-49.48992-110.32064-110.32064-110.32064S402.75968 267.008 402.75968 327.83872s49.48992 110.32064 110.32064 110.32064 110.32064-49.48992 110.32064-110.32064z m-159.20128 0c0-26.95168 21.92896-48.88064 48.88064-48.88064s48.88064 21.92896 48.88064 48.88064-21.92896 48.88064-48.88064 48.88064-48.88064-21.92896-48.88064-48.88064z" fill="#333333" p-id="8844"></path><path d="M513.08032 699.3408a30.72 30.72 0 0 0 24.12544-11.6992c19.82976-25.15456 193.77664-248.96512 193.77664-359.79776 0-120.15104-97.75104-217.90208-217.90208-217.90208S295.17824 207.68768 295.17824 327.83872c0 110.83264 173.94688 334.6432 193.77664 359.79776a30.70976 30.70976 0 0 0 24.12544 11.70432z m0-527.95904c86.272 0 156.46208 70.19008 156.46208 156.46208 0 60.11904-87.9104 198.18496-156.4672 290.23744-68.55168-92.02176-156.45696-230.05696-156.45696-290.23744 0-86.272 70.19008-156.46208 156.46208-156.46208z" fill="#333333" p-id="8845"></path></svg>