<svg
  xmlns="http://www.w3.org/2000/svg"
  xmlns:xlink="http://www.w3.org/1999/xlink"
  width="57.0999755859375"
  height="38.5"
  viewBox="0 0 57.0999755859375 38.5"
  fill="currentColor"
>
  <path
    d="M56.4 23.1L56.4 8.5L46.7 8.5L46.7 16.6L45.7 16.6L45.7 11.2L38.3 11.2L38.3 12.2L33.2 10.7L32.6 9.69998L31 9.69998L30.2 10.9L29.6 10.9L29.6 9.79999C29.6 9.79999 28.2 9.29999 27.3 9.89999L27.3 10.9L26.2 10.9L25.3 9.19998L23.5 9.19998L22.9 10.4L21.7 9.10001L19.9 9.10001L19.5 9.79999L18 9.79999C18 9.79999 17.6 6.60001 16.3 5.69998L16.3 3.89999L14.4 3.89999L14.4 5.10001L11.3 5.10001L11.3 0L2.20001 0L0.5 0.399994L0.5 27.9L11.8 27.9L11.8 30.8L0 30.8L1 36.6L9.70001 36.6L9.30002 38.5L17.6 38.5L17.3 36.7L38 36.7L37.6 38.5L46.4 38.5L45.8 36.6L55.6 36.6L56.5 33.1L56.5 28.1L57.1 28.1L57.1 23.2L56.4 23.2L56.4 23.1ZM11 25.4L10.8 25.4L9 25.4L9 21.9L9 20L11 20L11 25.4ZM13.7 7.29999L13.7 9.89999L12.2 9.89999L12.2 7.29999L9 7.29999L9 6.89999L12.2 6.89999L13.7 6.89999L13.7 7.29999ZM39.6 31.3L19.6 31.3L20.4 25.6L22.9 25.6L23.5 27.8L38.5 27.8L38.5 25.3L39.6 25.3L39.6 31.3ZM47.8 27.8L47.8 30.9L45.9 30.9L45.9 27.8L45.9 25.1L47.8 25.1L47.8 27.8Z"
  ></path>
</svg>
