<svg
  xmlns="http://www.w3.org/2000/svg"
  xmlns:xlink="http://www.w3.org/1999/xlink"
  width="172"
  height="107"
  viewBox="0 0 172 107"
  fill="currentColor"
>
  <path
    d="M172 69.3389L172 7.6151C172 3.41903 168.573 0 164.368 0L9.08537 0C4.85416 0 1.45361 3.41903 1.45361 7.6151L1.45361 69.3389L172 69.3389Z"
  ></path>
  <path
    d="M0 75.7107L0 94.0491C0 98.2452 3.4265 101.664 7.63175 101.664L28.5282 101.664L28.5282 107L58.1207 107L58.1207 101.664L112.426 101.664L112.426 107L142.018 107L142.018 101.664L162.915 101.664C167.12 101.664 170.546 98.2452 170.546 94.0491L170.546 75.7107L0 75.7107Z"
  ></path>
</svg>
