<svg xmlns="http://www.w3.org/2000/svg" width="32" height="32" viewBox="0 0 24 24"><!-- Icon from All by undefined - undefined --><path fill="currentColor" d="M18.93 20q-2.528 0-5.184-1.266t-4.944-3.555q-2.27-2.288-3.536-4.935T4 5.07q0-.45.3-.76T5.05 4h2.473q.408 0 .712.257t.411.659L9.142 7.3q.07.42-.025.733t-.333.513L6.59 10.592q.616 1.117 1.361 2.076t1.59 1.817q.87.87 1.874 1.62q1.004.749 2.204 1.414l2.139-2.177q.244-.263.549-.347q.304-.083.674-.033l2.103.43q.408.1.662.411t.254.712v2.435q0 .45-.31.75t-.76.3"/></svg>