<?xml version="1.0" standalone="no"?><!DOCTYPE svg PUBLIC "-//W3C//DTD SVG 1.1//EN" "http://www.w3.org/Graphics/SVG/1.1/DTD/svg11.dtd">
<svg
  t="1740814668296"
  class="icon"
  viewBox="0 0 1024 1024"
  version="1.1"
  xmlns="http://www.w3.org/2000/svg"
  p-id="3411"
  id="mx_n_1740814668298"
  width="64"
  height="64"
  data-spm-anchor-id="a313x.search_index.0.i8.18e13a81QKzl21"
  xmlns:xlink="http://www.w3.org/1999/xlink"
>
  <path
    d="M353.24713 46.634528A46.541445 46.541445 0 0 1 429.202769 10.564908c6.143471 5.026476 39.374063 31.322393 49.613181 39.653311 23.038015 18.756202 42.678505 35.883454 61.667414 54.220784a601.315472 601.315472 0 0 1 80.004745 93.594846c30.484647 44.679787 61.900122 116.958652 82.517982 176.764409l0.372332 1.023912 2.792486-4.654144c8.237836-15.219053 14.334765-32.392846 17.825374-52.033336l1.768575-12.100776c5.352266-44.540163 64.459902-56.501314 86.660171-17.499583 31.462017 55.198154 37.558946 69.207129 63.668697 147.582922 24.341176 73.256235 31.322393 124.265659 31.322393 193.565871C907.416119 849.84679 730.558627 1023.911795 511.813834 1023.911795c-220.001412 0-395.602284-167.688827-395.602284-385.828581 0-73.070069 11.309571-135.528688 42.445798-186.165781a447.449454 447.449454 0 0 1 49.008142-66.368101c4.281813-4.793769 29.600359-31.973973 38.396692-41.840759l10.704532-11.868069 8.749792-9.634079c5.910764-6.515802 9.447913-10.61145 12.612732-14.427848 2.327072-2.839028 4.374896-5.491891 6.376178-8.284377 6.562344-9.168665 13.683185-21.176358 25.318546-43.004295 23.549971-44.260914 43.423168-141.672159 43.423168-209.901918z m350.457083 460.620683a46.541445 46.541445 0 0 1-70.603373-39.839477c0-19.873197-47.98423-156.100007-89.499199-216.883134a509.489201 509.489201 0 0 0-67.810885-79.120457c-10.099494-9.773703-20.524777-19.268158-31.834349-28.995321l-5.119559-4.374896-0.465414 3.257902c-8.424002 54.779281-23.038015 109.698186-40.956472 148.001795l-5.398808 10.93724c-13.403936 25.225463-22.432977 40.491057-31.973973 53.708828a254.116291 254.116291 0 0 1-9.959869 12.89198c-4.328354 5.259183-8.70325 10.285659-15.544843 17.825374l-8.842874 9.773703-10.192577 11.309571c-9.634079 10.797615-34.999167 38.070902-38.489775 41.933842a355.669724 355.669724 0 0 0-39.094814 53.010707c-20.012821 32.625553-28.622989 80.051286-28.622989 137.436887C209.29444 803.863842 342.309891 930.828904 511.813834 930.828904c167.688827 0 302.519394-132.68966 302.519394-300.192321 0-59.89884-5.631515-101.227643-26.575165-164.198219a4756.535701 4756.535701 0 0 0-7.772421-23.17764l-3.164819-9.308289-1.722033 2.699404c-2.280531 3.304443-4.561062 6.515802-6.981217 9.773703l-7.353548 9.30829c-10.239118 12.380024-21.083275 23.084557-32.579012 32.765177-5.771139 4.886852-26.900955 21.036733-24.992756 19.500865l2.327072-1.861657 2.23399-1.722034-4.049106 2.792487z"
    fill="currentColor"
    p-id="3412"
  ></path>
</svg>
