<svg
  xmlns="http://www.w3.org/2000/svg"
  fill="currentColor"
  viewBox="0 0 1024 1024"
>
  <path
    fill="currentColor"
    stroke="currentColor"
    stroke-width="1"
    d="M829.44 972.8H194.56c-66.56 0-117.76-56.32-117.76-117.76V168.96c0-61.44 51.2-117.76 117.76-117.76h634.88c66.56 0 117.76 56.32 117.76 117.76v680.96c0 66.56-51.2 122.88-117.76 122.88zM194.56 128c-20.48 0-40.96 20.48-40.96 40.96v680.96c0 25.6 20.48 40.96 40.96 40.96h634.88c25.6 0 40.96-20.48 40.96-40.96V168.96c0-25.6-20.48-40.96-40.96-40.96H194.56zM112.64 250.88h793.6v76.8H112.64zM440.32 762.88v-117.76H348.16v117.76H291.84V491.52h56.32v102.4h92.16v-102.4h56.32v271.36zM537.6 762.88v-35.84l117.76-184.32h-107.52v-51.2h184.32v30.72L614.4 711.68h117.76v51.2z"
  />
</svg>
