<svg xmlns="http://www.w3.org/2000/svg" xmlns:xlink="http://www.w3.org/1999/xlink" width="480.38330078125" height="410.65185546875" viewBox="0 0 480.38330078125 410.65185546875" fill="none"><path d="M59.4153 17.8214C130.934 -20.4616 217.856 10.1208 262.527 44.0035C202.452 26.6221 141.716 23.3218 101.226 46.4236C57.4347 71.5056 38.5099 134.651 69.0977 218.697C99.6856 302.744 152.499 369.409 252.625 401.091C359.792 434.974 402.483 370.509 408.865 336.626C413.046 314.845 416.567 239.379 324.803 188.995C233.04 138.831 203.332 206.596 203.332 206.596C187.268 251.26 218.076 281.402 233.04 293.063C217.636 277.882 198.271 235.639 235.02 216.497C287.614 188.995 367.494 256.76 371.895 295.043C375.196 325.626 365.294 371.389 288.714 361.708C203.992 350.708 140.176 276.562 144.577 213.197C148.978 149.832 193.65 120.349 271.33 119.249C344.168 118.149 446.715 171.833 480.383 261.16L480.383 0L0 0L0 88.0069C20.0252 35.8628 59.4153 17.8214 59.4153 17.8214Z"   fill="currentColor" ></path></svg>