<svg
  xmlns="http://www.w3.org/2000/svg"
  viewBox="0 -1 36 36"
>
  <path
    d="M4.184 1.881l-.006.006.006-.006-.006.006a8.178 8.178 0 0 0-2.409 5.806 8.21 8.21 0 0 0 2.175 5.577l-3.109 3.109 3.122 3.122a8.182 8.182 0 0 0-2.188 5.581c0 2.104.805 4.213 2.415 5.815a8.203 8.203 0 0 0 5.806 2.394 8.236 8.236 0 0 0 5.584-2.174l3.112 3.112 3.107-3.106a8.214 8.214 0 0 0 5.575 2.168 8.21 8.21 0 0 0 5.81-2.394h.006a8.198 8.198 0 0 0 2.401-5.815c0-2.004-.725-4.01-2.173-5.578l3.125-3.125-3.118-3.119a8.218 8.218 0 0 0 2.166-5.568 8.197 8.197 0 0 0-2.401-5.812l-.003.003a8.187 8.187 0 0 0-5.813-2.413 8.187 8.187 0 0 0-5.564 2.173l-3.118-3.117-3.12 3.12a8.21 8.21 0 0 0-5.577-2.176 8.178 8.178 0 0 0-5.805 2.411zm9.178 27.025a5.122 5.122 0 0 1-3.373 1.253 5.087 5.087 0 0 1-3.604-1.476 5.062 5.062 0 0 1-1.486-3.602c0-1.21.423-2.416 1.268-3.371l7.195 7.196zM5.264 16.379l1.236-1.237a8.24 8.24 0 0 0 3.489.771 8.22 8.22 0 0 0 5.814-2.4l.006-.006a8.22 8.22 0 0 0 2.401-5.814 8.24 8.24 0 0 0-.772-3.489l1.248-1.248 1.24 1.24a8.246 8.246 0 0 0-.775 3.497c0 2.101.8 4.207 2.401 5.814v.006a8.199 8.199 0 0 0 5.816 2.4 8.256 8.256 0 0 0 3.5-.775l1.241 1.241-1.256 1.255a8.253 8.253 0 0 0-3.485-.769 8.196 8.196 0 0 0-8.217 8.216 8.25 8.25 0 0 0 .769 3.485l-1.233 1.233-1.241-1.241a8.263 8.263 0 0 0 .765-3.478 8.2 8.2 0 0 0-2.401-5.815h-.006a8.216 8.216 0 0 0-5.814-2.401 8.249 8.249 0 0 0-3.474.765l-1.252-1.25zm3.717 3.718c.332-.066.67-.1 1.008-.1 1.309 0 2.616.493 3.609 1.48l-.003.003a5.077 5.077 0 0 1 1.483 3.602c0 .339-.033.678-.1 1.012l-5.997-5.997zm-2.82-9.045a5.084 5.084 0 0 1-1.261-3.36c0-1.308.495-2.611 1.486-3.598l.006-.006a5.06 5.06 0 0 1 3.598-1.485c1.2 0 2.401.42 3.359 1.261l-7.188 7.188zm7.44.246l-.006.006.006-.006-.006.006a5.1 5.1 0 0 1-3.605 1.478c-.344 0-.688-.035-1.026-.103l6.013-6.013c.068.338.103.682.103 1.026a5.11 5.11 0 0 1-1.479 3.606zm10.414-7.443a5.077 5.077 0 0 1 3.353-1.252c1.31 0 2.616.495 3.602 1.485v.006a5.07 5.07 0 0 1 1.483 3.598c0 1.2-.415 2.4-1.245 3.356l-7.193-7.193zm4.392 8.822c-.342.07-.691.105-1.039.105a5.081 5.081 0 0 1-3.602-1.483l-.003.003a5.102 5.102 0 0 1-1.48-3.609c0-.347.035-.694.105-1.035l6.019 6.019zm2.788 9.044a5.087 5.087 0 0 1 1.258 3.361 5.079 5.079 0 0 1-1.483 3.602l.003.003a5.097 5.097 0 0 1-3.605 1.473 5.101 5.101 0 0 1-3.363-1.248l7.19-7.191zm-8.81 4.382a5.154 5.154 0 0 1-.102-1.021c0-1.307.495-2.612 1.483-3.602s2.295-1.483 3.602-1.483c.342 0 .684.034 1.021.102l-6.004 6.004z"
    fill="currentColor"
  />
</svg>
