<svg
  xmlns="http://www.w3.org/2000/svg"
  fill="currentColor"
  viewBox="0 0 1024 1024"
>
  <path
    fill="currentColor"
    stroke="currentColor"
    stroke-width="1"
    d="M388 96c19.882 0 36 16.118 36 36v44h308c19.882 0 36 16.118 36 36v66.357l124 0.001c19.882 0 36 16.118 36 36v376c0 19.882-16.118 36-36 36l-124-0.001V760h60c19.882 0 36 16.118 36 36v96c0 19.882-16.118 36-36 36H196c-19.882 0-36-16.118-36-36v-96c0-19.882 16.118-36 36-36h60v-33.643l-124 0.001c-19.882 0-36-16.118-36-36v-376c0-19.882 16.118-36 36-36l124-0.001V212c0-19.882 16.118-36 36-36h60v-44c0-19.882 16.118-36 36-36z m404 736H232v24h560v-24z m-96-584H328v512h368V248z m-94.544 71.26c13.918 13.919 14.058 36.398 0.418 50.488l-0.418 0.424-92.683 92.681 83.327 41.664c22.01 11.005 26.684 40.291 9.404 57.607l-0.53 0.521-128 123.284c-14.32 13.793-37.11 13.365-50.903-0.955-13.655-14.177-13.372-36.656 0.53-50.487l0.426-0.416 91.303-87.94-82.43-41.215c-21.758-10.88-26.634-39.696-9.87-57.13l0.514-0.525 128-128c14.06-14.06 36.853-14.06 50.912 0zM256 350.358l-88 0.001v304l88-0.001v-304z m600 0.001l-88-0.001v304l88 0.001v-304z"
  />
</svg>
