<?xml version="1.0" standalone="no"?><!DOCTYPE svg PUBLIC "-//W3C//DTD SVG 1.1//EN" "http://www.w3.org/Graphics/SVG/1.1/DTD/svg11.dtd">
<svg
  t="1745241697672"
  class="icon"
  viewBox="0 0 1024 1024"
  version="1.1"
  xmlns="http://www.w3.org/2000/svg"
  p-id="1530"
  xmlns:xlink="http://www.w3.org/1999/xlink"
  width="64"
  height="64"
>
  <path
    d="M716.8 648.730947a78.848 78.848 0 0 0-78.686316 79.225264 79.063579 79.063579 0 0 0 78.686316 79.333052 78.901895 78.901895 0 0 0 78.740211-79.225263 79.009684 79.009684 0 0 0-78.686316-79.333053z m-441.128421 0a79.009684 79.009684 0 0 0-78.686316 79.225264 79.063579 79.063579 0 0 0 78.686316 79.333052 79.009684 79.009684 0 0 0 78.686316-79.225263 79.009684 79.009684 0 0 0-78.686316-79.333053z m110.322526-475.513263a31.690105 31.690105 0 0 0-31.474526 31.744v71.141053H244.304842c-23.174737 0-32.875789 14.282105-47.265684 31.797895L126.544842 457.889684S102.4 497.071158 102.4 521.970526v158.504421a31.636211 31.636211 0 0 0 31.474526 31.636211h31.258948a112.154947 112.154947 0 0 1 110.538105-96.848842 112.101053 112.101053 0 0 1 110.48421 96.848842h220.16a112.101053 112.101053 0 0 1 110.484211-96.848842 112.101053 112.101053 0 0 1 110.484211 96.848842h62.841263a31.636211 31.636211 0 0 0 31.474526-31.636211V204.961684a31.636211 31.636211 0 0 0-31.474526-31.744H385.994105z m290.438737 116.304842l-34.492631 125.359158h124.389052l-202.320842 146.054737 44.732632-130.209684H517.605053l158.881684-141.204211z m-430.457263 49.960421h95.932632v182.37979H155.216842c3.018105-8.192 6.467368-18.216421 12.288-26.839579l66.290526-148.048842s4.419368-7.491368 12.180211-7.491369z"
    p-id="1531"
    fill="currentColor"
  ></path>
</svg>
