<svg
  xmlns="http://www.w3.org/2000/svg"
  fill="currentColor"
  viewBox="0 0 1077 1024"
>
  <path
    fill="currentColor"
    stroke="currentColor"
    stroke-width="1"
    d="M354.142 808.421h-205.34a41.715 41.715 0 0 1-41.014-42.361V257.94c0-23.39 18.378-42.361 41.067-42.361h272.061l-47.966 84.669H189.979v423.505h164.11v84.668z m179.685 0l47.913-84.669h183.027V300.194h-164.217V215.579h205.339c22.636 0 41.014 18.971 41.014 42.361v508.12a41.715 41.715 0 0 1-41.068 42.361H533.827z m354.142-423.451h82.136v254.06h-82.136V384.97zM518.467 469.639h123.203L436.278 808.421v-254.06H313.128L518.413 215.579v254.06z"
  />
</svg>
