<svg
  xmlns="http://www.w3.org/2000/svg"
  xmlns:xlink="http://www.w3.org/1999/xlink"
  viewBox="0 0 409.7799987792969 409.7799987792969"
>
  <defs>
    <mask id="iconMask">
      <rect
        width="100%"
        height="100%"
        fill="white"
      />
      <path
        d="M302.7 164.51L194.7 64.51L52.06 125.84C52.06 125.84 6.28005 145.84 4.06004 176.95C1.84005 208.06 32.51 240.06 149.84 230.73C149.84 230.73 87.25 206.94 108.06 183.62C148.51 138.28 302.7 164.51 302.7 164.51Z"
        fill="black"
      />
      <path
        d="M107.06 245.26L215.06 345.26L357.7 283.93C357.7 283.93 403.48 263.93 405.7 232.82C407.92 201.71 377.28 169.71 259.95 179C259.95 179 322.54 202.79 301.73 226.11C261.28 271.49 107.06 245.26 107.06 245.26Z"
        fill="black"
      />
    </mask>
  </defs>
  <circle
    cx="204.89"
    cy="204.89"
    r="204.89"
    fill="currentColor"
    mask="url(#iconMask)"
  />
</svg>
