<svg t="1776231510838" class="icon" viewBox="0 0 1024 1024" version="1.1" xmlns="http://www.w3.org/2000/svg" p-id="4908" width="200" height="200"><path d="M1007.39708 872.803032c-10.335301 14.792463-38.560589 50.603106-70.2412 83.62291-55.213611 57.534198-81.517003 65.191112-96.503701 65.191112-0.480474 0-0.950725 0-1.410753-0.020446l-0.633817-0.020446c-20.466145-0.64404-74.821036-2.371701-162.216178-43.661791-106.910561-50.5111-227.33573-142.363404-357.942857-272.990977s-222.438985-251.093633-272.939862-358.034863c-41.269644-87.405364-42.987083-141.73981-43.631122-162.195732l-0.010223-0.592925c-0.470251-14.741349 5.77591-40.942513 65.139998-97.955345 32.999359-31.680611 68.820224-59.936567 83.643356-70.302537 11.919843-8.300954 31.005903-17.716198 54.467343-15.518286 17.61397 1.645879 32.805124 9.629924 41.678558 21.897344 11.919843 16.499679 125.88417 189.296507 138.335601 208.955046 12.308311 19.382523 10.376192 48.589204-5.193208 78.092348-8.996108 17.164165-39.511314 70.772788-52.831687 94.091108 14.076864 20.333248 53.485949 72.837804 136.781728 156.12336 108.924463 108.944909 165.20125 142.874546 165.753284 143.201678 9.691261 5.755464 12.921682 18.278455 7.186663 27.990162-5.735019 9.701484-18.217118 12.95235-27.939048 7.237778-2.412593-1.420976-60.478378-36.066214-173.921341-149.509176-113.463408-113.453185-148.057531-171.539417-149.468284-173.962232-3.710894-6.317721-3.751786-14.138201-0.112451-20.496814 0.470251-0.828051 47.311348-82.641516 58.362249-103.71081 10.069507-19.096283 9.548142-32.917576 6.849309-37.160058-11.827837-18.666923-125.792165-191.463751-136.945294-206.900254-3.332649-4.610505-20.01634-10.437529-39.593097 3.199752-11.562043 8.086274-45.982378 34.859917-78.378588 65.93738-52.504556 50.327089-52.954361 67.337911-52.944138 67.511699l0.010223 0.582702c0.57248 18.135335 2.095684 66.29518 39.736217 146.023184 48.486976 102.678302 137.609779 219.290347 264.874034 346.585271 127.274478 127.294924 243.855855 216.42795 346.503488 264.925148 79.707559 37.660978 127.908295 39.194405 146.04363 39.766885l0.633817 0.020446c0.092006 0 4.385602-0.132897 14.945806-6.818641s27.387014-19.924334 52.514779-46.156166c31.057017-32.416656 57.799992-66.806322 65.886266-78.378588 13.800847-19.719877 8.076051-36.168442 3.475769-39.38864-13.23859-9.272125-186.250097-124.432526-206.828694-137.006631-4.498054-2.749947-16.121434-2.811284-30.985457 3.58822-2.11613 0.909834-4.252705 1.932119-6.358612 3.046409-9.987724 5.264768-22.357372 1.451645-27.632363-8.536079-5.27499-9.987724-1.451645-22.357372 8.536079-27.632363 3.056632-1.61521 6.184824-3.107746 9.302793-4.44694 26.088712-11.224689 51.052911-11.55182 68.462424-0.909834 20.967065 12.809231 193.140298 127.315369 208.965269 138.396938 12.635442 8.852988 20.793276 24.156594 22.367595 41.985243C1024.326119 831.339154 1022.506452 851.222596 1007.39708 872.803032z" p-id="4909"></path></svg>