<?xml version="1.0" standalone="no"?><!DOCTYPE svg PUBLIC "-//W3C//DTD SVG 1.1//EN" "http://www.w3.org/Graphics/SVG/1.1/DTD/svg11.dtd">
<svg
  t="1742001080219"
  class="icon"
  viewBox="0 0 1024 1024"
  version="1.1"
  xmlns="http://www.w3.org/2000/svg"
  p-id="1843"
  id="mx_n_1742001080224"
  xmlns:xlink="http://www.w3.org/1999/xlink"
  width="64"
  height="64"
  fill="none"
  stroke="currentColor"
  stroke-width="50"
  stroke-linecap="round"
  stroke-linejoin="round"
>
  <path
    d="M331.4 157.4h20v508.8h-20z"
    p-id="1844"
  ></path>
  <path
    d="M244.1 151.8h194.7v20H244.1zM282 134c-19.8 0-35.9-16.1-35.9-35.9s16.1-35.9 35.9-35.9c19.8 0 35.9 16.1 35.9 35.9S301.8 134 282 134z m0-51.8c-8.8 0-15.9 7.1-15.9 15.9S273.2 114 282 114s15.9-7.1 15.9-15.9-7.2-15.9-15.9-15.9zM407.6 134c-19.8 0-35.9-16.1-35.9-35.9s16.1-35.9 35.9-35.9 35.9 16.1 35.9 35.9-16.1 35.9-35.9 35.9z m0-51.8c-8.8 0-15.9 7.1-15.9 15.9s7.1 15.9 15.9 15.9 15.9-7.1 15.9-15.9-7.1-15.9-15.9-15.9zM282 264c-19.8 0-35.9-16.1-35.9-35.9 0-19.8 16.1-35.9 35.9-35.9 19.8 0 35.9 16.1 35.9 35.9 0 19.8-16.1 35.9-35.9 35.9z m0-51.8c-8.8 0-15.9 7.1-15.9 15.9S273.2 244 282 244s15.9-7.1 15.9-15.9-7.2-15.9-15.9-15.9zM407.6 264c-19.8 0-35.9-16.1-35.9-35.9 0-19.8 16.1-35.9 35.9-35.9s35.9 16.1 35.9 35.9c0 19.8-16.1 35.9-35.9 35.9z m0-51.8c-8.8 0-15.9 7.1-15.9 15.9s7.1 15.9 15.9 15.9 15.9-7.1 15.9-15.9-7.1-15.9-15.9-15.9zM752.8 1002.1c-58.6 0-106.2-47.7-106.2-106.2s47.7-106.2 106.2-106.2S859 837.4 859 895.9s-47.6 106.2-106.2 106.2z m0-192.5c-47.5 0-86.2 38.7-86.2 86.2s38.7 86.2 86.2 86.2 86.2-38.7 86.2-86.2-38.6-86.2-86.2-86.2z"
    p-id="1845"
  ></path>
  <path
    d="M991.3 855.5H830l-2.9-4.8c-15.8-25.8-43.3-41.2-73.5-41.2s-57.7 15.4-73.5 41.2l-2.9 4.8H366.3V688.2l24.3-148.8h580.1l20.6 146.7v169.4z m-150.3-20h130.2v-148l-18-128.1H407.6l-21.3 130.4v145.7h279.8c19.9-28.9 52.2-45.9 87.5-45.9s67.6 17.1 87.4 45.9z"
    p-id="1846"
  ></path>
  <path
    d="M956.3 848.3h20V981h-20z"
    p-id="1847"
  ></path>
  <path
    d="M917.6 975.4h92.9v20h-92.9zM275 848.3h20V981h-20z"
    p-id="1848"
  ></path>
  <path
    d="M236.3 975.4h92.9v20h-92.9zM30.6 834.6h347.3v20H30.6z"
    p-id="1849"
  ></path>
  <path
    d="M385 846.9h-79.7V661.3H385v185.6z m-59.8-20H365V681.3h-39.7v145.6zM860.1 638.4H931v20h-70.9zM860.1 692.3H931v20h-70.9zM860.1 746.2H931v20h-70.9zM609.1 853.9H436.5V617.4h172.6v236.5z m-152.6-20h132.6V637.4H456.5v196.5zM752.8 943.6c-26.3 0-47.7-21.4-47.7-47.7 0-26.3 21.4-47.7 47.7-47.7 26.3 0 47.7 21.4 47.7 47.7 0.1 26.3-21.3 47.7-47.7 47.7z m0-75.5c-15.3 0-27.7 12.4-27.7 27.7 0 15.3 12.4 27.7 27.7 27.7 15.3 0 27.7-12.4 27.7-27.7 0.1-15.2-12.4-27.7-27.7-27.7z"
    p-id="1850"
  ></path>
</svg>
