<svg
  xmlns="http://www.w3.org/2000/svg"
  fill="currentColor"
  viewBox="0 0 1024 1024"
>
  <path
    fill="currentColor"
    stroke="currentColor"
    stroke-width="1"
    d="M952.32 256L512 476.16 71.68 256c-25.6-15.36-20.48-40.96 0-56.32L476.16 20.48c20.48-10.24 40.96-10.24 61.44 0l409.6 179.2c30.72 10.24 30.72 40.96 5.12 56.32zM424.96 1003.52L51.2 803.84c-20.48-10.24-35.84-30.72-35.84-51.2V363.52c0-25.6 30.72-40.96 51.2-25.6l373.76 184.32c20.48 10.24 35.84 30.72 35.84 51.2v404.48c0 20.48-30.72 40.96-51.2 25.6z m179.2 0l373.76-199.68c20.48-10.24 35.84-30.72 35.84-51.2V363.52c0-25.6-30.72-40.96-51.2-25.6l-373.76 179.2c-20.48 10.24-35.84 30.72-35.84 51.2V972.8c-5.12 25.6 25.6 46.08 51.2 30.72z"
  />
</svg>
