<svg
  xmlns="http://www.w3.org/2000/svg"
  xmlns:xlink="http://www.w3.org/1999/xlink"
  width="174.0999755859375"
  height="104.70002746582031"
  viewBox="0 0 174.0999755859375 104.70002746582031"
  fill="currentColor"
>
  <path d="M101.9 0L46.5 64.3L69.1 64.3L125.1 0L101.9 0Z"></path>
  <path d="M107.6 40.4L52.1 104.7L74.7 104.7L130.7 40.4L107.6 40.4Z"></path>
  <path
    d="M54.1 82.6001C34.9 76.5001 20.5 65.2001 20.5 52.3001C20.5 35.9001 42.9 22.1001 71 18.2001L83.7 1.6001C37.2 2.6001 0 24.9001 0 52.2001C0 70.8001 17.2 87.0001 42.9 95.9001L54.1 82.6001Z"
  ></path>
  <path
    d="M130.8 8.5L119.5 21.9C138.9 28 153.1 39.3 153.1 52.3C153.1 69 130.5 83 101.6 86.5L88.8 102.9C136.1 102.3 174.1 79.9 174.1 52.2C174.1 33.7 156.7 17.3 130.8 8.5Z"
  ></path>
</svg>
