<svg
  t="1741252782413"
  class="icon"
  viewBox="0 0 1024 1024"
  version="1.1"
  xmlns="http://www.w3.org/2000/svg"
  p-id="6794"
  fill="currentColor"
>
  <path
    d="M802.688 339.57888l52.7616-71.41888h49.51552v-34.92864h-122.45504v34.92864h29.06112l-45.52192 61.62432a878.90432 878.90432 0 0 0-67.78368-13.35296l-1.58208-48.27136h43.59168v-34.92864h-177.70496v34.92864h42.88v37.72928a1285.8368 1285.8368 0 0 0-93.44-3.38432c-240.512 0-435.48672 64.9472-435.48672 145.06496S271.488 592.64 512 592.64c19.15904 0 38.016-0.42496 56.5248-1.22368L481.28 723.62496s-63.89248-10.24-53.76 46.93504c8.53504 16.64 18.58048 20.34688 40.96 17.70496 6.2976-1.14688 129.13152-165.78048 154.9312-200.44288 54.8864-4.82816 105.55904-13.11232 149.7088-24.15104v-40.94464c-29.75744 5.15072-63.04256 8.04352-98.19648 8.04352-4.49024 0-8.94464-0.06144-13.37344-0.1536l116.24448-157.35296c74.6496 13.70112 125.88032 41.82016 125.88032 74.30656 0 27.63264-37.0688 52.10624-94.08 67.24096v38.62016c84.8128-26.4704 137.88672-64.09216 137.88672-105.86112 0.00512-42.89536-55.936-81.4336-144.7936-107.99104zM446.17216 447.57504c0-37.13536 66.91328-68.5824 159.26784-79.27808v158.56128c-92.35968-10.70592-159.26784-42.14784-159.26784-79.2832z m255.39072-30.50496l-1.7152-52.19328c13.11744 0.51712 25.89184 1.44896 38.2464 2.7392l-36.5312 49.45408z"
    p-id="6795"
    data-spm-anchor-id="a313x.search_index.0.i0.64fd3a81QfVceF"
  ></path>
</svg>
