<svg
  xmlns="http://www.w3.org/2000/svg"
  xmlns:xlink="http://www.w3.org/1999/xlink"
  width="973.300048828125"
  height="553.3000640869141"
  viewBox="0 0 973.300048828125 553.3000640869141"
  fill="currentColor"
>
  <path
    d="M27.8997 279.2C28.1997 248.2 37.7997 221.8 52.9997 198C67.1997 175.7 84.6997 158.2 103.7 142.8C127.9 123.2 153.9 108.2 180.8 95.3C203 84.7 225.5 75.8 248.5 68.7C264.7 63.7 280.9 59 297.3 55.3C318.4 50.5 339.7 46.4 361 42.8C376.1 40.3 391.3 38.9 406.5 37.5C420.6 36.2 434.7 35.6 448.8 34.7C453 34.4 457.3 34.1 461.5 34.1C478.9 34.1 496.3 33.8 513.6 34.4C529.1 34.9 544.5 36.1 560 37.6C576.9 39.3 593.8 41.1 610.5 43.9C629.2 47 647.8 51.1 666.4 55.2C687.8 60 708.9 66.6 729.8 74.1C761.7 85.6 792.7 100 822.2 119C842.6 132.1 861.7 147.5 879 166.4C895.8 184.9 909.8 206.1 918.5 232C925.8 253.6 929.1 276.1 924.6 299.5C921.5 315.6 915.4 329.9 907.5 343C894.5 364.6 878.1 381.5 860.2 396.4C839.7 413.4 817.9 427.2 795.1 438.8C779.9 446.5 764.5 453.9 748.9 460.6C735.6 466.3 721.9 471.1 708.3 475.6C693 480.6 677.6 485.2 662.1 489.2C647.3 493.1 632.3 496.2 617.4 499.2C604.4 501.8 591.4 504 578.4 505.9C566.7 507.6 555 509 543.3 510C526.5 511.4 509.7 512.5 492.9 513.6C488.3 513.9 483.8 513.9 479.2 514C473.1 514.1 467 514.5 460.9 514.4C447.3 514.1 433.6 514.2 420 513.1C397.7 511.4 375.4 509.4 353.2 506.8C339.6 505.3 326.1 502.8 312.7 500.3C300.7 498 288.8 495.4 276.9 492.3C261.6 488.3 246.3 483.9 231.2 479.1C220.7 475.8 210.3 471.9 200.1 467.6C186 461.6 171.9 455.4 158 448.4C132.8 435.7 108.8 420 86.7997 399.6C68.3997 382.5 52.0997 362.8 40.5997 337.5C32.5997 319.9 28.1998 301 27.7998 280.7C27.8997 280.2 27.8997 279.7 27.8997 279.2ZM920.7 281C918.9 281 918.1 281 917.3 281C906.8 281 896.3 281 885.8 281C882.3 281 882.6 280.9 882.2 276.8C881.4 269.5 880.8 262 878.9 255.1C873.8 235.6 863.5 220.3 851.6 206.6C835.7 188.1 817.4 173.9 798.2 161.4C770.6 143.6 741.5 130.2 711.8 119.3C690.7 111.6 669.3 104.9 647.7 100.1C629.3 96 610.9 91.7 592.3 88.9C569.6 85.4 546.8 83 524.1 80.9C509.8 79.5 495.3 79 481 78.9C460.9 78.8 440.8 79.1 420.8 80.1C402.5 81 384.1 82.5 365.9 84.9C345.8 87.5 325.7 90.9 305.7 94.7C291.8 97.4 278.1 101.1 264.4 105C251.4 108.6 238.5 112.6 225.8 117.2C205.2 124.6 184.9 133.4 165.2 144C141.1 157.1 118 172.5 97.4997 193.2C84.0997 206.7 72.4997 222 64.4997 241.3C55.8997 262.1 54.0997 283.7 59.9997 306.1C64.8997 324.7 73.8997 340.1 84.5997 353.9C96.4997 369.2 110.1 381.7 124.5 392.8C144.7 408.5 166.2 421 188.4 431.7C209.6 442 231.3 450.8 253.3 457.6C270.8 463 288.4 467.9 306.1 472.1C323.3 476.2 340.6 479.8 358 482.3C380.9 485.6 404 488.2 427 490.2C444 491.7 461 492.3 478 492.2C500.3 492 522.7 491.1 545 489.8C560 489 574.9 487.2 589.8 485.4C604 483.6 618.3 481.5 632.4 478.8C647.8 475.9 663.1 472.3 678.4 468.5C691.5 465.2 704.6 461.8 717.5 457.4C736.2 450.9 754.9 444.1 773.3 436.3C796.1 426.6 818.3 414.8 839.3 400.1C859 386.3 877.6 370.6 893.3 350.1C904.5 335.5 913.5 319.1 917.9 299.4C919.1 293.5 919.7 287.5 920.7 281Z"
  ></path>
  <path
    d="M619.3 351.4C603 351.4 586.9 351.4 570.6 351.4C570.6 350.1 570.6 349.1 570.6 348.1C570.6 330.2 570.6 312.3 570.6 294.4C570.6 291.7 570.1 290.8 567.8 290.8C554.7 290.9 541.5 290.9 528.4 290.8C526.1 290.8 525.5 291.6 525.5 294.4C525.6 312.3 525.5 330.2 525.5 348.1C525.5 349.1 525.5 350.2 525.5 351.4C509.2 351.4 493.1 351.4 476.9 351.4C476.9 304.3 476.9 257.3 476.9 210C477.9 210 478.7 210 479.5 210C493.8 210 508.2 210.1 522.5 209.9C525 209.9 525.6 210.8 525.5 213.8C525.4 231.5 525.5 249.2 525.4 266.9C525.4 270 526.2 270.8 528.6 270.8C541.5 270.7 554.4 270.7 567.3 270.8C569.8 270.8 570.6 270.1 570.6 266.8C570.5 248.9 570.5 231 570.5 213.1C570.5 212.2 570.6 211.2 570.6 210.2C586.9 210.2 602.9 210.2 619.2 210.2C619.3 257.2 619.3 304.2 619.3 351.4Z"
  ></path>
  <path
    d="M753 351.3C752.3 351.4 751.9 351.6 751.5 351.6C741.4 351.6 731.3 351.6 721.2 351.6C719.8 351.6 719.1 351 718.7 349.2C717.2 343.3 715.4 337.4 713.9 331.5C713.2 328.8 712.2 327.8 709.8 327.8C700.1 328 690.3 328 680.6 327.8C678.8 327.8 678.1 328.5 677.5 330.6C675.9 336.8 674.2 343 672.4 349.2C672.1 350.2 671 351.4 670.3 351.4C658.7 351.5 647.1 351.5 635.5 351.5C635.3 351.5 635 351.3 634.6 351.1C636 345.4 637.4 339.7 638.9 334C643.8 314.7 648.7 295.4 653.7 276.1C658.6 256.8 663.6 237.5 668.5 218.2C668.9 216.7 669.4 215.2 669.6 213.7C669.9 210.6 671.2 209.9 673.6 210C691.2 210.1 708.9 210.1 726.5 210.1C727.4 210.1 728.3 210.1 729.6 210.1C728.5 213.2 727.4 215.9 726.6 218.7C723.7 228.7 724.3 238.5 726.9 248.5C732.3 269.1 737.4 289.7 742.7 310.4C745.9 323.8 749.4 337.4 753 351.3ZM695.8 266.1C695.5 266 695.3 266 695 265.9C691.2 279.9 687.5 294 683.6 308.2C691.8 308.2 699.5 308.2 707.4 308.2C703.4 293.9 699.6 280 695.8 266.1Z"
  ></path>
  <path
    d="M250 317.1C250 328.8 250 339.9 250 351.3C209.2 351.3 168.4 351.3 127.3 351.3C127.3 344.9 127.3 338.7 127.4 332.5C127.4 331.7 128.1 330.9 128.6 330.2C138.1 317 147.7 303.8 157.2 290.6C171.5 270.8 185.9 251.1 200.2 231.3C200.4 231.1 200.5 230.8 200.8 230.2C200.1 230.1 199.6 229.8 199.1 229.8C185.4 229.8 171.8 229.5 158.1 229.9C148.1 230.2 139.1 234.5 130.9 241.6C130.1 242.3 129.4 242.9 128.6 243.5C128.4 243.7 128.1 243.7 127.6 243.8C127.6 232.6 127.6 221.5 127.6 210C168.3 210 209.1 210 250.3 210C250.3 216.3 250.4 222.6 250.2 228.9C250.2 229.9 249.4 231 248.8 231.8C237.9 246.8 227 261.7 216.2 276.6C203.3 294.3 190.5 312 177.7 329.7C177.5 329.9 177.4 330.2 177.1 330.8C177.9 330.9 178.5 331.1 179.1 331.1C192.7 331.1 206.2 331.4 219.8 331C229.6 330.8 238.5 326.5 246.6 319.7C247.5 319.2 248.6 318.3 250 317.1Z"
  ></path>
  <path
    d="M457.4 331.5C457.4 338.4 457.4 344.7 457.4 351.4C456.3 351.5 455.2 351.6 454.1 351.6C427 351.6 400 351.6 372.9 351.6C357 351.6 340.9 336.9 336 318.1C334.4 312 333.6 305.8 333.6 299.4C333.7 286.6 333.6 273.8 333.6 261C333.6 236.2 347 215.7 366.5 210.9C368.8 210.3 371.2 210 373.5 210C400.5 209.9 427.4 210 454.4 209.9C456.6 209.9 457.6 210.3 457.4 213.5C457.1 217.9 457.2 222.4 457.4 226.8C457.5 229.4 456.8 230 454.8 230C444.3 229.9 433.8 230 423.3 230C404.8 230 389.2 244.5 383.9 266.7C378.2 290.7 387.8 317 406.2 327.1C411.5 330 417.1 331.6 422.9 331.6C433.3 331.5 443.8 331.6 454.2 331.6C455.3 331.5 456.2 331.5 457.4 331.5Z"
  ></path>
  <path
    d="M826.8 351.4C806.8 351.4 787 351.4 767 351.4C767 304.3 767 257.4 767 210.2C783 210.2 799.1 210.2 815.4 210.2C815.4 211.3 815.4 212.3 815.4 213.3C815.4 245.2 815.5 277 815.3 308.9C815.2 324.5 817.8 338.7 826.5 350.4C826.7 350.6 826.7 350.8 826.8 351.4Z"
  ></path>
  <path
    d="M315 351.4C298.6 351.4 282.5 351.4 266.3 351.4C266.3 304.2 266.3 257.3 266.3 210.2C286.3 210.2 306.2 210.2 326 210.2C323.8 214.4 321.5 218.4 319.6 222.7C316.4 229.8 315 237.6 315 245.8C315 279.9 315 314 315 348.1C315 349 315 350 315 351.4Z"
  ></path>
  <path
    d="M695.8 266.1C699.6 280 703.5 293.9 707.4 308.2C699.5 308.2 691.9 308.2 683.6 308.2C687.4 294 691.2 280 695 265.9C695.2 266 695.5 266.1 695.8 266.1Z"
  ></path>
</svg>
