<svg xmlns="http://www.w3.org/2000/svg" xmlns:xlink="http://www.w3.org/1999/xlink" width="3981.99951171875" height="518.848876953125" viewBox="0 0 3981.99951171875 518.848876953125" fill="none">
<g  clip-path="url(#clip-path-TBKxHaFIV-VQTGlpgYwW1)">
<path d="M3785.79 514.12L3785.79 418.388C3848.44 418.388 3881.53 377.021 3881.53 326.2C3881.53 275.378 3848.44 234.012 3785.79 234.012L3785.79 138.279C3820.07 138.279 3849.62 144.189 3874.44 153.644L3874.44 43.7285L3982 43.7285L3982 326.2L3982 492.846C3982 503.484 3973.73 512.938 3961.91 512.938L3874.44 512.938L3874.44 498.755C3849.62 508.211 3820.07 514.12 3785.79 514.12ZM3139.27 133.552L3139.27 497.573C3139.27 508.211 3130.99 517.665 3119.17 517.665L3031.71 517.665L3031.71 133.552L3139.27 133.552ZM3785.79 138.279L3785.79 234.012C3723.15 234.012 3690.06 275.378 3690.06 326.2C3690.06 377.021 3723.15 418.388 3785.79 418.388L3785.79 514.12C3653.42 514.12 3589.59 429.024 3589.59 326.2C3589.59 223.375 3653.42 138.279 3785.79 138.279ZM2134.61 514.12L2134.61 418.388C2197.25 418.388 2230.35 377.021 2230.35 326.2C2230.35 275.378 2197.25 234.012 2134.61 234.012L2134.61 138.279C2168.88 138.279 2198.43 144.189 2223.25 153.644L2223.25 43.7285L2330.81 43.7285L2330.81 326.2L2330.81 492.846C2330.81 503.484 2322.54 512.938 2310.72 512.938L2223.25 512.938L2223.25 498.755C2198.43 508.211 2168.88 514.12 2134.61 514.12ZM3002.16 133.552L2894.6 133.552L2820.14 356.93L2745.68 133.552L2638.12 133.552L2563.66 356.93L2489.19 133.552L2381.64 133.552L2509.29 517.665L2616.84 517.665L2691.31 294.29L2765.77 517.665L2873.33 517.665L3002.16 133.552ZM3278.74 143.007L3278.74 163.099C3308.29 147.736 3343.74 138.279 3385.11 138.279C3511.58 138.279 3568.32 213.92 3568.32 315.562L3568.32 497.573C3568.32 508.211 3560.04 517.665 3548.22 517.665L3471.4 517.665L3471.4 316.745C3471.4 267.106 3439.48 235.194 3379.2 235.194C3320.11 235.194 3277.56 262.378 3277.56 326.2L3277.56 498.755C3277.56 509.393 3269.28 518.847 3257.46 518.847L3180.64 518.847L3180.64 144.189L3278.74 144.189L3278.74 143.007ZM2134.61 138.279L2134.61 234.012C2071.96 234.012 2038.87 275.378 2038.87 326.2C2038.87 377.021 2071.96 418.388 2134.61 418.388L2134.61 514.12C2002.23 514.12 1938.4 429.024 1938.4 326.2C1938.4 223.375 2002.23 138.279 2134.61 138.279ZM1718.56 514.12L1718.56 418.388C1781.2 418.388 1814.3 377.021 1814.3 326.2C1814.3 275.378 1781.2 234.012 1718.56 234.012L1718.56 138.279C1850.94 138.279 1914.76 223.375 1914.76 326.2C1914.76 429.024 1850.94 514.12 1718.56 514.12ZM1718.56 138.279L1718.56 234.012C1655.92 234.012 1622.82 275.378 1622.82 326.2C1622.82 377.021 1655.92 418.388 1718.56 418.388L1718.56 514.12C1586.18 514.12 1522.36 429.024 1522.36 326.2C1523.54 223.375 1587.36 138.279 1718.56 138.279ZM1306.06 514.12L1306.06 418.388C1368.7 418.388 1401.8 377.021 1401.8 326.2C1401.8 275.378 1368.7 234.012 1306.06 234.012L1306.06 138.279C1438.44 138.279 1502.26 223.375 1502.26 326.2C1501.08 429.024 1437.26 514.12 1306.06 514.12ZM1306.06 138.279L1306.06 234.012C1243.42 234.012 1210.32 275.378 1210.32 326.2C1210.32 377.021 1243.42 418.388 1306.06 418.388L1306.06 514.12C1173.68 514.12 1109.86 429.024 1109.86 326.2C1109.86 223.375 1173.68 138.279 1306.06 138.279ZM813.186 226.922L1077.94 226.922L1077.94 277.743L1077.94 321.472L1077.94 510.575L960.93 510.575L828.551 510.575C557.884 510.575 557.884 57.9112 828.551 57.9112L1077.94 57.9112L1077.94 105.187C1077.94 131.188 1056.67 152.463 1030.66 152.463L854.554 152.463C705.628 152.463 706.81 417.206 854.554 417.206L878.193 417.206L960.93 417.206L960.93 322.654L841.552 322.654L813.186 226.922Z"   fill="#E60012" >
</path>
<path d="M3031.71 99.2784L3751.52 0L3031.71 0L3031.71 99.2784Z"   fill="#E60012" >
</path>
<path d="M452.688 509.394L0 509.394L0 427.844L452.688 365.204L0 365.204L0 56.7311L452.688 56.7311L452.688 509.394Z"   fill="#E60012" >
</path>
</g>
<defs>
<clipPath id="clip-path-TBKxHaFIV-VQTGlpgYwW1">
<path d="M0 518.849L3982 518.849L3982 0L0 0L0 518.849Z" fill="white"/>
</clipPath>
</defs>
</svg>
